<?xml version="1.0" encoding="utf-8"?>
<!-- Uploaded to: SVG Repo, www.svgrepo.com, Generator: SVG Repo Mixer Tools -->
<svg width="800px" height="800px" viewBox="0 0 1024 1024" class="icon"  version="1.1" xmlns="http://www.w3.org/2000/svg"><path d="M479.232 253.952h61.44v61.44h-61.44z" fill="#009944" /><path d="M419.84 313.344h61.44v61.44h-61.44z" fill="#6D4BC9" /><path d="M479.232 313.344h61.44v61.44h-61.44zM540.672 313.344h61.44v61.44h-61.44zM358.4 374.784h61.44v61.44h-61.44zM419.84 374.784h61.44v61.44h-61.44z" fill="#6D4BC9" /><path d="M479.232 374.784h61.44v61.44h-61.44zM540.672 374.784h61.44v61.44h-61.44zM602.112 374.784h61.44v61.44h-61.44zM237.568 557.056h61.44v61.44h-61.44zM237.568 495.616h61.44v61.44h-61.44zM299.008 436.224h61.44v61.44h-61.44z" fill="#6D4BC9" /><path d="M358.4 436.224h61.44v61.44h-61.44z" fill="#6D4BC9" /><path d="M299.008 495.616h61.44v61.44h-61.44z" fill="#6D4BC9" /><path d="M358.4 495.616h61.44v61.44h-61.44zM419.84 436.224h61.44v61.44h-61.44z" fill="#6D4BC9" /><path d="M479.232 436.224h61.44v61.44h-61.44z" fill="#6D4BC9" /><path d="M419.84 495.616h61.44v61.44h-61.44z" fill="#6D4BC9" /><path d="M479.232 495.616h61.44v61.44h-61.44zM540.672 436.224h61.44v61.44h-61.44zM602.112 436.224h61.44v61.44h-61.44z" fill="#6D4BC9" /><path d="M540.672 495.616h61.44v61.44h-61.44zM602.112 495.616h61.44v61.44h-61.44zM237.568 616.448h61.44v61.44h-61.44zM237.568 677.888h61.44v61.44h-61.44zM299.008 557.056h61.44v61.44h-61.44z" fill="#6D4BC9" /><path d="M358.4 557.056h61.44v61.44h-61.44z" fill="#6D4BC9" /><path d="M299.008 616.448h61.44v61.44h-61.44z" fill="#6D4BC9" /><path d="M358.4 616.448h61.44v61.44h-61.44zM419.84 557.056h61.44v61.44h-61.44z" fill="#6D4BC9" /><path d="M479.232 557.056h61.44v61.44h-61.44z" fill="#6D4BC9" /><path d="M419.84 616.448h61.44v61.44h-61.44z" fill="#6D4BC9" /><path d="M479.232 616.448h61.44v61.44h-61.44zM540.672 557.056h61.44v61.44h-61.44zM602.112 557.056h61.44v61.44h-61.44z" fill="#6D4BC9" /><path d="M540.672 616.448h61.44v61.44h-61.44zM602.112 616.448h61.44v61.44h-61.44zM661.504 436.224h61.44v61.44h-61.44z" fill="#6D4BC9" /><path d="M661.504 495.616h61.44v61.44h-61.44zM722.944 557.056h61.44v61.44h-61.44zM722.944 495.616h61.44v61.44h-61.44zM661.504 557.056h61.44v61.44h-61.44z" fill="#6D4BC9" /><path d="M722.944 616.448h61.44v61.44h-61.44zM661.504 616.448h61.44v61.44h-61.44zM722.944 677.888h61.44v61.44h-61.44zM299.008 677.888h61.44v61.44h-61.44z" fill="#6D4BC9" /><path d="M358.4 677.888h61.44v61.44h-61.44zM358.4 739.328h61.44v61.44h-61.44z" fill="#6D4BC9" /><path d="M299.008 739.328h61.44v61.44h-61.44zM419.84 677.888h61.44v61.44h-61.44z" fill="#6D4BC9" /><path d="M479.232 677.888h61.44v61.44h-61.44zM419.84 739.328h61.44v61.44h-61.44z" fill="#6D4BC9" /><path d="M479.232 739.328h61.44v61.44h-61.44zM540.672 677.888h61.44v61.44h-61.44zM602.112 677.888h61.44v61.44h-61.44zM540.672 739.328h61.44v61.44h-61.44zM602.112 739.328h61.44v61.44h-61.44z" fill="#6D4BC9" /><path d="M661.504 677.888h61.44v61.44h-61.44zM661.504 739.328h61.44v61.44h-61.44zM419.84 798.72h61.44v61.44h-61.44z" fill="#6D4BC9" /><path d="M479.232 798.72h61.44v61.44h-61.44zM540.672 798.72h61.44v61.44h-61.44z" fill="#6D4BC9" /><path d="M540.672 190.464h61.44v61.44h-61.44z" fill="#009944" /></svg>