<?xml version="1.0" encoding="utf-8"?>
<!-- Uploaded to: SVG Repo, www.svgrepo.com, Generator: SVG Repo Mixer Tools -->
<svg width="800px" height="800px" viewBox="0 0 1024 1024" class="icon"  version="1.1" xmlns="http://www.w3.org/2000/svg"><path d="M358.4 284.672h61.44v61.44h-61.44z" fill="#E9FFA4" /><path d="M481.28 223.232h61.44v61.44h-61.44z" fill="#009944" /><path d="M419.84 284.672h61.44v61.44h-61.44zM481.28 284.672h61.44v61.44h-61.44z" fill="#E9FFA4" /><path d="M540.672 284.672h61.44v61.44h-61.44zM602.112 284.672h61.44v61.44h-61.44zM299.008 344.064h61.44v61.44h-61.44z" fill="#E9FFA4" /><path d="M358.4 344.064h61.44v61.44h-61.44zM299.008 405.504h61.44v61.44h-61.44z" fill="#E9FFA4" /><path d="M358.4 405.504h61.44v61.44h-61.44zM419.84 344.064h61.44v61.44h-61.44zM481.28 344.064h61.44v61.44h-61.44zM419.84 405.504h61.44v61.44h-61.44zM481.28 405.504h61.44v61.44h-61.44z" fill="#E9FFA4" /><path d="M540.672 344.064h61.44v61.44h-61.44zM602.112 344.064h61.44v61.44h-61.44zM540.672 405.504h61.44v61.44h-61.44zM602.112 405.504h61.44v61.44h-61.44zM237.568 466.944h61.44v61.44h-61.44z" fill="#E9FFA4" /><path d="M237.568 526.336h61.44v61.44h-61.44zM299.008 466.944h61.44v61.44h-61.44z" fill="#E9FFA4" /><path d="M358.4 466.944h61.44v61.44h-61.44z" fill="#E9FFA4" /><path d="M299.008 526.336h61.44v61.44h-61.44z" fill="#E9FFA4" /><path d="M358.4 526.336h61.44v61.44h-61.44zM419.84 466.944h61.44v61.44h-61.44zM481.28 466.944h61.44v61.44h-61.44z" fill="#E9FFA4" /><path d="M419.84 526.336h61.44v61.44h-61.44zM481.28 526.336h61.44v61.44h-61.44z" fill="#E9FFA4" /><path d="M540.672 466.944h61.44v61.44h-61.44zM602.112 466.944h61.44v61.44h-61.44z" fill="#E9FFA4" /><path d="M540.672 526.336h61.44v61.44h-61.44zM602.112 526.336h61.44v61.44h-61.44z" fill="#E9FFA4" /><path d="M237.568 587.776h61.44v61.44h-61.44zM237.568 649.216h61.44v61.44h-61.44zM299.008 587.776h61.44v61.44h-61.44z" fill="#BDFF9F" /><path d="M358.4 587.776h61.44v61.44h-61.44zM299.008 649.216h61.44v61.44h-61.44z" fill="#BDFF9F" /><path d="M358.4 649.216h61.44v61.44h-61.44zM419.84 587.776h61.44v61.44h-61.44zM481.28 587.776h61.44v61.44h-61.44zM419.84 649.216h61.44v61.44h-61.44zM481.28 649.216h61.44v61.44h-61.44z" fill="#BDFF9F" /><path d="M540.672 587.776h61.44v61.44h-61.44zM602.112 587.776h61.44v61.44h-61.44zM540.672 649.216h61.44v61.44h-61.44zM602.112 649.216h61.44v61.44h-61.44z" fill="#BDFF9F" /><path d="M663.552 344.064h61.44v61.44h-61.44zM663.552 405.504h61.44v61.44h-61.44zM663.552 466.944h61.44v61.44h-61.44z" fill="#E9FFA4" /><path d="M722.944 466.944h61.44v61.44h-61.44z" fill="#E9FFA4" /><path d="M663.552 526.336h61.44v61.44h-61.44z" fill="#E9FFA4" /><path d="M722.944 526.336h61.44v61.44h-61.44z" fill="#E9FFA4" /><path d="M663.552 587.776h61.44v61.44h-61.44z" fill="#BDFF9F" /><path d="M722.944 587.776h61.44v61.44h-61.44zM663.552 649.216h61.44v61.44h-61.44z" fill="#BDFF9F" /><path d="M722.944 649.216h61.44v61.44h-61.44zM299.008 708.608h61.44v61.44h-61.44z" fill="#BDFF9F" /><path d="M358.4 708.608h61.44v61.44h-61.44zM358.4 770.048h61.44v61.44h-61.44zM419.84 708.608h61.44v61.44h-61.44zM481.28 708.608h61.44v61.44h-61.44zM419.84 770.048h61.44v61.44h-61.44zM481.28 770.048h61.44v61.44h-61.44z" fill="#BDFF9F" /><path d="M540.672 708.608h61.44v61.44h-61.44zM602.112 708.608h61.44v61.44h-61.44zM540.672 770.048h61.44v61.44h-61.44zM602.112 770.048h61.44v61.44h-61.44zM663.552 708.608h61.44v61.44h-61.44zM419.84 829.44h61.44v61.44h-61.44z" fill="#BDFF9F" /><path d="M481.28 829.44h61.44v61.44h-61.44z" fill="#BDFF9F" /><path d="M540.672 829.44h61.44v61.44h-61.44z" fill="#BDFF9F" /><path d="M540.672 161.792h61.44v61.44h-61.44z" fill="#009944" /></svg>